# xmcd
#
# Track frame offsets:
#        150
#        26972
#        48245
#        75070
#
# Disc length: 1281 seconds
#
# Revision: 0
# Processed by: cddbd v1.5.1PL2 Copyright (c) Steve Scherf et al.
# Submitted via: ExactAudioCopy v0.95a3
#
DISCID=2104ff04
DTITLE=Lovable - Dear Mother
DYEAR=2000
DGENRE=Game
TTITLE0=Dear Mother
TTITLE1=Of My Dreams
TTITLE2=Dear Mother(Off Vocal Version)
TTITLE3=Of My Dreams(Off Vocal Version)
EXTD=
EXTT0=
EXTT1=
EXTT2=
EXTT3=
PLAYORDER=
